<svg width="18" height="24" viewBox="0 0 18 24" fill="none" xmlns="http://www.w3.org/2000/svg">
<path d="M0.42 12.032C0.42 8.34133 1.03867 5.46133 2.276 3.392C3.53467 1.30133 5.68933 0.255999 8.74 0.255999C11.7907 0.255999 13.9347 1.30133 15.172 3.392C16.4307 5.46133 17.06 8.34133 17.06 12.032C17.06 15.7653 16.4307 18.688 15.172 20.8C13.9347 22.8907 11.7907 23.936 8.74 23.936C5.68933 23.936 3.53467 22.8907 2.276 20.8C1.03867 18.688 0.42 15.7653 0.42 12.032ZM13.476 12.032C13.476 10.304 13.3587 8.84267 13.124 7.648C12.9107 6.45333 12.4627 5.48267 11.78 4.736C11.0973 3.968 10.084 3.584 8.74 3.584C7.396 3.584 6.38267 3.968 5.7 4.736C5.01733 5.48267 4.55867 6.45333 4.324 7.648C4.11067 8.84267 4.004 10.304 4.004 12.032C4.004 13.824 4.11067 15.328 4.324 16.544C4.53733 17.76 4.98533 18.7413 5.668 19.488C6.372 20.2347 7.396 20.608 8.74 20.608C10.084 20.608 11.0973 20.2347 11.78 19.488C12.484 18.7413 12.9427 17.76 13.156 16.544C13.3693 15.328 13.476 13.824 13.476 12.032Z" fill="white" style="mix-blend-mode:overlay"/>
</svg>
