<svg width="16" height="24" viewBox="0 0 16 24" fill="none" xmlns="http://www.w3.org/2000/svg">
<path d="M2.436 19.04C4.484 17.2693 6.09467 15.8187 7.268 14.688C8.46267 13.536 9.45467 12.3413 10.244 11.104C11.0333 9.86667 11.428 8.62933 11.428 7.392C11.428 6.112 11.1187 5.10933 10.5 4.384C9.90267 3.65867 8.95333 3.296 7.652 3.296C6.39333 3.296 5.412 3.70133 4.708 4.512C4.02533 5.30133 3.66267 6.368 3.62 7.712H0.1C0.164 5.28 0.889333 3.424 2.276 2.144C3.684 0.842666 5.46533 0.191999 7.62 0.191999C9.94533 0.191999 11.7587 0.831999 13.06 2.112C14.3827 3.392 15.044 5.09867 15.044 7.232C15.044 8.768 14.6493 10.2507 13.86 11.68C13.092 13.088 12.164 14.3573 11.076 15.488C10.0093 16.5973 8.644 17.888 6.98 19.36L5.54 20.64H15.684V23.68H0.132V21.024L2.436 19.04Z" fill="white" style="mix-blend-mode:overlay"/>
</svg>
