<svg width="16" height="25" viewBox="0 0 16 25" fill="none" xmlns="http://www.w3.org/2000/svg">
<path d="M0.356 6.432C0.484 4.448 1.24133 2.90133 2.628 1.792C4.036 0.682666 5.828 0.127998 8.004 0.127998C9.49733 0.127998 10.788 0.394665 11.876 0.927999C12.964 1.46133 13.7853 2.18667 14.34 3.104C14.8947 4.02133 15.172 5.056 15.172 6.208C15.172 7.53067 14.82 8.66133 14.116 9.6C13.412 10.5387 12.5693 11.168 11.588 11.488V11.616C12.8467 12 13.828 12.704 14.532 13.728C15.236 14.7307 15.588 16.0213 15.588 17.6C15.588 18.8587 15.3 19.9787 14.724 20.96C14.148 21.9413 13.2947 22.72 12.164 23.296C11.0333 23.8507 9.67867 24.128 8.1 24.128C5.796 24.128 3.89733 23.5413 2.404 22.368C0.932 21.1733 0.142667 19.4667 0.036 17.248H3.556C3.64133 18.3787 4.07867 19.3067 4.868 20.032C5.65733 20.736 6.724 21.088 8.068 21.088C9.36933 21.088 10.372 20.736 11.076 20.032C11.78 19.3067 12.132 18.3787 12.132 17.248C12.132 15.7547 11.652 14.6987 10.692 14.08C9.75333 13.44 8.30267 13.12 6.34 13.12H5.508V10.112H6.372C8.1 10.0907 9.412 9.80267 10.308 9.248C11.2253 8.69333 11.684 7.81867 11.684 6.624C11.684 5.6 11.3533 4.78933 10.692 4.192C10.0307 3.57333 9.092 3.264 7.876 3.264C6.68133 3.264 5.75333 3.57333 5.092 4.192C4.43067 4.78933 4.036 5.536 3.908 6.432H0.356Z" fill="white" style="mix-blend-mode:overlay"/>
</svg>
