<svg width="18" height="24" viewBox="0 0 18 24" fill="none" xmlns="http://www.w3.org/2000/svg">
<path d="M15.46 3.808H4.74V10.176C5.188 9.57867 5.84933 9.07733 6.724 8.672C7.62 8.26667 8.56933 8.064 9.572 8.064C11.364 8.064 12.8147 8.448 13.924 9.216C15.0547 9.984 15.8547 10.9547 16.324 12.128C16.8147 13.3013 17.06 14.5387 17.06 15.84C17.06 17.4187 16.7507 18.8267 16.132 20.064C15.5347 21.28 14.628 22.24 13.412 22.944C12.2173 23.648 10.7453 24 8.996 24C6.67067 24 4.804 23.424 3.396 22.272C1.988 21.12 1.14533 19.5947 0.868 17.696H4.42C4.65467 18.6987 5.17733 19.4987 5.988 20.096C6.79867 20.672 7.812 20.96 9.028 20.96C10.5427 20.96 11.6733 20.5013 12.42 19.584C13.188 18.6667 13.572 17.4507 13.572 15.936C13.572 14.4 13.188 13.2267 12.42 12.416C11.652 11.584 10.5213 11.168 9.028 11.168C7.98267 11.168 7.09733 11.4347 6.372 11.968C5.668 12.48 5.156 13.184 4.836 14.08H1.38V0.608H15.46V3.808Z" fill="white" style="mix-blend-mode:overlay"/>
</svg>
