<svg width="18" height="24" viewBox="0 0 18 24" fill="none" xmlns="http://www.w3.org/2000/svg">
<path d="M12.964 6.08C12.7293 5.09867 12.3027 4.36267 11.684 3.872C11.0653 3.38133 10.2013 3.136 9.092 3.136C7.40667 3.136 6.148 3.78667 5.316 5.088C4.484 6.368 4.04667 8.50133 4.004 11.488C4.55867 10.5493 5.36933 9.824 6.436 9.312C7.50267 8.8 8.65467 8.544 9.892 8.544C11.3 8.544 12.5373 8.85333 13.604 9.472C14.692 10.0693 15.5347 10.944 16.132 12.096C16.7507 13.248 17.06 14.624 17.06 16.224C17.06 17.7173 16.7613 19.0507 16.164 20.224C15.588 21.3973 14.724 22.3253 13.572 23.008C12.42 23.6693 11.0333 24 9.412 24C7.21467 24 5.48667 23.52 4.228 22.56C2.99067 21.5787 2.116 20.2027 1.604 18.432C1.11333 16.6613 0.868 14.4533 0.868 11.808C0.868 4 3.62 0.0959988 9.124 0.0959988C11.2573 0.0959988 12.932 0.671999 14.148 1.824C15.3853 2.976 16.1107 4.39467 16.324 6.08H12.964ZM9.092 11.616C7.79067 11.616 6.68133 12.0107 5.764 12.8C4.868 13.568 4.42 14.688 4.42 16.16C4.42 17.632 4.836 18.8053 5.668 19.68C6.52133 20.5333 7.70533 20.96 9.22 20.96C10.564 20.96 11.62 20.544 12.388 19.712C13.1773 18.88 13.572 17.7707 13.572 16.384C13.572 14.9333 13.188 13.7813 12.42 12.928C11.6733 12.0533 10.564 11.616 9.092 11.616Z" fill="white" style="mix-blend-mode:overlay"/>
</svg>
