<svg width="17" height="25" viewBox="0 0 17 25" fill="none" xmlns="http://www.w3.org/2000/svg">
<path d="M4.356 11.808C2.13733 10.6987 1.028 8.94933 1.028 6.56C1.028 5.408 1.316 4.352 1.892 3.392C2.468 2.432 3.332 1.67467 4.484 1.12C5.636 0.543999 7.044 0.255999 8.708 0.255999C10.3507 0.255999 11.748 0.543999 12.9 1.12C14.0733 1.67467 14.948 2.432 15.524 3.392C16.1 4.352 16.388 5.408 16.388 6.56C16.388 7.75467 16.0787 8.81067 15.46 9.728C14.8627 10.624 14.0627 11.3173 13.06 11.808C14.276 12.256 15.236 12.992 15.94 14.016C16.644 15.0187 16.996 16.2027 16.996 17.568C16.996 18.9547 16.644 20.1813 15.94 21.248C15.236 22.3147 14.2547 23.136 12.996 23.712C11.7373 24.288 10.308 24.576 8.708 24.576C7.108 24.576 5.67867 24.288 4.42 23.712C3.18267 23.136 2.212 22.3147 1.508 21.248C0.804 20.1813 0.452 18.9547 0.452 17.568C0.452 16.1813 0.804 14.9867 1.508 13.984C2.212 12.9813 3.16133 12.256 4.356 11.808ZM12.9 7.008C12.9 5.81333 12.5267 4.896 11.78 4.256C11.0333 3.616 10.0093 3.296 8.708 3.296C7.428 3.296 6.41467 3.616 5.668 4.256C4.92133 4.896 4.548 5.824 4.548 7.04C4.548 8.10667 4.932 8.98133 5.7 9.664C6.48933 10.3253 7.492 10.656 8.708 10.656C9.924 10.656 10.9267 10.3147 11.716 9.632C12.5053 8.94933 12.9 8.07467 12.9 7.008ZM8.708 13.408C7.3 13.408 6.148 13.76 5.252 14.464C4.37733 15.1467 3.94 16.1387 3.94 17.44C3.94 18.656 4.36667 19.648 5.22 20.416C6.07333 21.1627 7.236 21.536 8.708 21.536C10.1587 21.536 11.3 21.152 12.132 20.384C12.9853 19.616 13.412 18.6347 13.412 17.44C13.412 16.16 12.9747 15.168 12.1 14.464C11.2467 13.76 10.116 13.408 8.708 13.408Z" fill="white" style="mix-blend-mode:overlay"/>
</svg>
