<svg width="17" height="24" viewBox="0 0 17 24" fill="none" xmlns="http://www.w3.org/2000/svg">
<path d="M4.964 17.664C5.17733 18.7307 5.636 19.5413 6.34 20.096C7.044 20.6507 7.99333 20.928 9.188 20.928C10.7027 20.928 11.812 20.3307 12.516 19.136C13.22 17.9413 13.572 15.904 13.572 13.024C13.06 13.7493 12.3347 14.3147 11.396 14.72C10.4787 15.104 9.476 15.296 8.388 15.296C7.00133 15.296 5.74267 15.0187 4.612 14.464C3.48133 13.888 2.58533 13.0453 1.924 11.936C1.284 10.8053 0.964 9.44 0.964 7.84C0.964 5.49333 1.64667 3.62667 3.012 2.24C4.39867 0.831999 6.29733 0.127998 8.708 0.127998C11.6093 0.127998 13.668 1.09867 14.884 3.04C16.1213 4.96 16.74 7.91467 16.74 11.904C16.74 14.656 16.5053 16.9067 16.036 18.656C15.588 20.4053 14.7987 21.728 13.668 22.624C12.5373 23.52 10.9693 23.968 8.964 23.968C6.68133 23.968 4.92133 23.3707 3.684 22.176C2.44667 20.9813 1.75333 19.4773 1.604 17.664H4.964ZM9.028 12.224C10.308 12.224 11.3107 11.8293 12.036 11.04C12.7827 10.2293 13.156 9.16267 13.156 7.84C13.156 6.368 12.7613 5.22667 11.972 4.416C11.204 3.584 10.148 3.168 8.804 3.168C7.46 3.168 6.39333 3.59467 5.604 4.448C4.836 5.28 4.452 6.37867 4.452 7.744C4.452 9.04533 4.82533 10.1227 5.572 10.976C6.34 11.808 7.492 12.224 9.028 12.224Z" fill="white" style="mix-blend-mode:overlay"/>
</svg>
