<svg width="41" height="24" viewBox="0 0 41 24" fill="none" xmlns="http://www.w3.org/2000/svg">
<path d="M15.68 18.104H6.144L4.416 23H0.512L8.832 0.759998H13.024L21.312 23H17.408L15.68 18.104ZM14.656 15.288L10.912 4.728L7.168 15.288H14.656ZM31.8605 5.144C34.1432 5.144 36.0312 5.752 37.5245 6.968C39.0178 8.16267 39.9458 9.79467 40.3085 11.864H36.4365C36.2232 10.7547 35.7005 9.89067 34.8685 9.272C34.0578 8.632 33.0338 8.312 31.7965 8.312C30.3885 8.312 29.2152 8.81333 28.2765 9.816C27.3378 10.7973 26.8685 12.248 26.8685 14.168C26.8685 16.088 27.3378 17.5493 28.2765 18.552C29.2152 19.5547 30.3885 20.056 31.7965 20.056C33.0338 20.056 34.0578 19.736 34.8685 19.096C35.7005 18.456 36.2232 17.5813 36.4365 16.472H40.3085C39.9458 18.5413 39.0178 20.184 37.5245 21.4C36.0312 22.616 34.1432 23.224 31.8605 23.224C30.1538 23.224 28.6392 22.8613 27.3165 22.136C26.0152 21.4107 24.9912 20.3653 24.2445 19C23.4978 17.6347 23.1245 16.024 23.1245 14.168C23.1245 12.3333 23.4978 10.7333 24.2445 9.368C24.9912 8.00267 26.0152 6.95733 27.3165 6.232C28.6392 5.50667 30.1538 5.144 31.8605 5.144Z" fill="black" style="mix-blend-mode:overlay"/>
</svg>
