<svg width="10" height="12" viewBox="0 0 10 12" fill="none" xmlns="http://www.w3.org/2000/svg">
<path d="M9.86 5.523C9.86 5.859 9.836 6.153 9.788 6.405H2.156C2.192 7.425 2.474 8.181 3.002 8.673C3.53 9.165 4.184 9.411 4.964 9.411C5.648 9.411 6.224 9.237 6.692 8.889C7.172 8.541 7.466 8.079 7.574 7.503H9.77C9.638 8.199 9.362 8.817 8.942 9.357C8.522 9.897 7.976 10.323 7.304 10.635C6.632 10.935 5.882 11.085 5.054 11.085C4.094 11.085 3.242 10.881 2.498 10.473C1.766 10.065 1.19 9.477 0.769999 8.709C0.349999 7.941 0.139999 7.035 0.139999 5.991C0.139999 4.959 0.349999 4.059 0.769999 3.291C1.19 2.523 1.766 1.935 2.498 1.527C3.242 1.119 4.094 0.915001 5.054 0.915001C6.026 0.915001 6.872 1.119 7.592 1.527C8.324 1.923 8.882 2.475 9.266 3.183C9.662 3.879 9.86 4.659 9.86 5.523ZM7.79 5.469C7.814 4.821 7.7 4.281 7.448 3.849C7.208 3.405 6.872 3.081 6.44 2.877C6.02 2.661 5.558 2.553 5.054 2.553C4.25 2.553 3.578 2.799 3.038 3.291C2.498 3.783 2.204 4.509 2.156 5.469H7.79Z" fill="white" style="mix-blend-mode:overlay"/>
</svg>
