<svg width="10" height="16" viewBox="0 0 10 16" fill="none" xmlns="http://www.w3.org/2000/svg">
<path d="M9.689 0.682999V10.601H7.619V8.531C7.367 9.239 6.947 9.785 6.359 10.169C5.783 10.553 5.105 10.745 4.325 10.745C3.929 10.745 3.557 10.673 3.209 10.529C2.861 10.385 2.579 10.151 2.363 9.827V15.317H0.311001V0.682999H2.363V5.849C2.363 6.857 2.603 7.625 3.083 8.153C3.575 8.681 4.229 8.945 5.045 8.945C5.825 8.945 6.449 8.693 6.917 8.189C7.385 7.673 7.619 6.923 7.619 5.939V0.682999H9.689Z" fill="white" style="mix-blend-mode:overlay"/>
</svg>
