<svg width="12" height="12" viewBox="0 0 12 12" fill="none" xmlns="http://www.w3.org/2000/svg">
<path d="M9.39967 2.7094C10.0074 2.24161 10.8938 2.41616 11.2713 3.0837L11.3055 3.14428C11.6697 3.78831 11.3686 4.60613 10.6748 4.86305C9.6281 5.25062 9.62776 6.73457 10.6769 7.11543C11.3708 7.36732 11.6742 8.18052 11.3149 8.82535L11.2436 8.95329C10.8666 9.62988 9.97289 9.80705 9.36631 9.32543C8.47322 8.61631 7.1779 9.39723 7.3487 10.5247C7.46527 11.2942 6.87153 12 6.09327 12H6.06106C5.28235 12 4.68307 11.3114 4.78931 10.54C4.94766 9.39017 3.6194 8.63594 2.71502 9.36342C2.09909 9.85887 1.18593 9.68466 0.795666 8.99724L0.697047 8.82353C0.331402 8.17948 0.63629 7.35841 1.3302 7.09957C2.36765 6.7126 2.38148 5.23786 1.34247 4.85509C0.654373 4.60159 0.355465 3.79335 0.713041 3.15314L0.758625 3.07153C1.13697 2.39413 2.02801 2.20965 2.64422 2.68113L2.68768 2.71439C3.61652 3.42508 4.9388 2.6462 4.77142 1.48871C4.65797 0.704129 5.27227 0 6.06501 0C6.855 0 7.46426 0.71245 7.34594 1.49352C7.17329 2.63316 8.48631 3.4125 9.39967 2.7094Z" fill="black" fill-opacity="0.7" style="mix-blend-mode:overlay"/>
</svg>
