<svg width="24" height="16" viewBox="0 0 24 16" fill="none" xmlns="http://www.w3.org/2000/svg">
<path d="M3.76254 4.895C4.92654 4.895 5.85654 5.195 6.55254 5.795C7.26054 6.383 7.69254 7.175 7.84854 8.171H5.90454C5.82054 7.631 5.58654 7.199 5.20254 6.875C4.83054 6.539 4.33254 6.371 3.70854 6.371C3.19254 6.371 2.79054 6.497 2.50254 6.749C2.22654 6.989 2.08854 7.319 2.08854 7.739C2.08854 8.051 2.19054 8.303 2.39454 8.495C2.59854 8.687 2.85054 8.837 3.15054 8.945C3.46254 9.053 3.90054 9.173 4.46454 9.305C5.20854 9.473 5.80854 9.647 6.26454 9.827C6.73254 10.007 7.12854 10.295 7.45254 10.691C7.78854 11.075 7.95654 11.603 7.95654 12.275C7.95654 13.103 7.63854 13.775 7.00254 14.291C6.37854 14.807 5.53254 15.065 4.46454 15.065C3.22854 15.065 2.22654 14.777 1.45854 14.201C0.702538 13.625 0.246538 12.821 0.090538 11.789H2.08854C2.14854 12.329 2.38854 12.767 2.80854 13.103C3.22854 13.439 3.78054 13.607 4.46454 13.607C4.95654 13.607 5.34054 13.481 5.61654 13.229C5.90454 12.965 6.04854 12.635 6.04854 12.239C6.04854 11.891 5.94054 11.615 5.72454 11.411C5.50854 11.207 5.23854 11.051 4.91454 10.943C4.59054 10.823 4.14654 10.703 3.58254 10.583C2.86254 10.415 2.27454 10.247 1.81854 10.079C1.37454 9.911 0.990538 9.641 0.666538 9.269C0.354538 8.885 0.198538 8.369 0.198538 7.721C0.198538 6.881 0.510538 6.203 1.13454 5.687C1.77054 5.159 2.64654 4.895 3.76254 4.895Z" fill="white" style="mix-blend-mode:overlay"/>
<path d="M9.7263 2.141C9.7263 1.793 9.8463 1.505 10.0863 1.277C10.3263 1.049 10.6443 0.934998 11.0403 0.934998C11.4363 0.934998 11.7543 1.049 11.9943 1.277C12.2463 1.505 12.3723 1.793 12.3723 2.141C12.3723 2.489 12.2463 2.771 11.9943 2.987C11.7543 3.203 11.4363 3.311 11.0403 3.311C10.6443 3.311 10.3263 3.203 10.0863 2.987C9.8463 2.771 9.7263 2.489 9.7263 2.141ZM12.0663 5.021V14.939H10.0143V5.021H12.0663Z" fill="white" style="mix-blend-mode:overlay"/>
<path d="M20.0935 4.859C21.2455 4.859 22.1695 5.231 22.8655 5.975C23.5615 6.719 23.9095 7.781 23.9095 9.161V14.939H21.8575V9.377C21.8575 8.489 21.6295 7.805 21.1735 7.325C20.7175 6.833 20.0935 6.587 19.3015 6.587C18.4855 6.587 17.8315 6.851 17.3395 7.379C16.8475 7.895 16.6015 8.657 16.6015 9.665V14.939H14.5495V5.021H16.6015V7.199C16.8655 6.455 17.3095 5.879 17.9335 5.471C18.5575 5.063 19.2775 4.859 20.0935 4.859Z" fill="white" style="mix-blend-mode:overlay"/>
</svg>
